M48
;DRILL file {KiCad 4.0.7-e2-6376~58~ubuntu16.04.1} date Wed May  9 12:33:36 2018
;FORMAT={-:-/ absolute / metric / decimal}
FMAT,2
METRIC,TZ
T1C0.254
T2C0.300
T3C0.400
T4C0.500
T5C2.500
%
G90
G05
M71
T1
X172.3Y-86.9
X172.3Y-87.4
X172.3Y-87.9
X172.3Y-88.4
X172.3Y-88.9
X172.8Y-86.9
X172.8Y-87.4
X172.8Y-87.9
X172.8Y-88.4
X172.8Y-88.9
X173.3Y-86.9
X173.3Y-87.4
X173.3Y-87.9
X173.3Y-88.4
X173.3Y-88.9
X173.8Y-86.9
X173.8Y-87.4
X173.8Y-87.9
X173.8Y-88.4
X173.8Y-88.9
X174.3Y-86.9
X174.3Y-87.4
X174.3Y-87.9
X174.3Y-88.4
X174.3Y-88.9
T2
X161.3Y-76.9
X161.3Y-77.9
X161.3Y-78.9
X161.3Y-79.9
X161.3Y-80.9
X161.3Y-81.9
X161.3Y-82.9
X161.3Y-83.9
X161.3Y-84.9
X161.3Y-85.9
X161.3Y-86.9
X161.3Y-88.9
X161.3Y-89.9
X161.3Y-90.9
X161.3Y-91.9
X161.3Y-92.9
X161.3Y-93.9
X161.3Y-94.9
X161.3Y-95.9
X162.3Y-76.9
X162.3Y-82.9
X162.3Y-83.9
X162.3Y-84.9
X162.3Y-85.9
X162.3Y-86.9
X162.3Y-88.9
X162.3Y-89.9
X162.3Y-90.9
X162.3Y-91.9
X162.3Y-92.9
X162.3Y-93.9
X162.3Y-94.9
X162.3Y-95.9
X163.3Y-76.9
X163.3Y-82.9
X163.3Y-83.9
X163.3Y-84.9
X163.3Y-85.9
X163.3Y-86.9
X163.3Y-88.9
X163.3Y-89.9
X163.3Y-90.9
X163.3Y-91.9
X163.3Y-92.9
X163.3Y-93.9
X163.3Y-94.9
X163.3Y-95.9
X164.3Y-76.9
X164.3Y-82.9
X164.3Y-83.9
X164.3Y-84.9
X164.3Y-85.9
X164.3Y-86.9
X164.3Y-88.9
X164.3Y-89.9
X164.3Y-90.9
X164.3Y-91.9
X164.3Y-92.9
X164.3Y-93.9
X164.3Y-94.9
X164.3Y-95.9
X165.3Y-76.9
X165.3Y-82.9
X165.3Y-83.9
X165.3Y-84.9
X165.3Y-85.9
X165.3Y-86.9
X165.3Y-88.9
X165.3Y-89.9
X165.3Y-90.9
X165.3Y-91.9
X165.3Y-92.9
X165.3Y-93.9
X165.3Y-94.9
X165.3Y-95.9
X166.3Y-76.9
X166.3Y-82.9
X166.3Y-83.9
X166.3Y-84.9
X166.3Y-85.9
X166.3Y-86.9
X166.3Y-88.9
X166.3Y-89.9
X166.3Y-90.9
X166.3Y-91.9
X166.3Y-92.9
X166.3Y-93.9
X166.3Y-94.9
X166.3Y-95.9
X167.3Y-76.9
X167.3Y-86.9
X167.3Y-88.9
X167.3Y-95.9
X168.3Y-76.9
X168.3Y-77.9
X168.3Y-78.9
X168.3Y-79.9
X168.3Y-80.9
X168.3Y-81.9
X168.3Y-82.9
X168.3Y-83.9
X168.3Y-84.9
X168.3Y-85.9
X168.3Y-86.9
X168.3Y-88.9
X168.3Y-89.9
X168.3Y-90.9
X168.3Y-91.9
X168.3Y-92.9
X168.3Y-93.9
X168.3Y-94.9
X168.3Y-95.9
X169.3Y-76.9
X169.3Y-86.9
X169.3Y-88.9
X169.3Y-95.9
X170.1Y-88.9
X170.3Y-76.9
X170.3Y-83.9
X170.3Y-84.9
X170.3Y-85.9
X170.3Y-86.9
X170.3Y-95.9
X170.8Y-86.9
X171.1Y-86.3
X171.2Y-91.5
X171.3Y-76.9
X171.3Y-79.9
X171.3Y-95.9
X171.4Y-85.8
X171.4Y-89.6
X171.7Y-86.3
X171.8Y-82.9
X171.8Y-89.4
X171.8Y-89.9
X172.3Y-76.9
X172.3Y-95.9
X172.4Y-79.9
X172.9Y-93.1
X173.Y-80.15
X173.3Y-76.9
X173.3Y-95.9
X173.4Y-81.9
X173.4Y-82.9
X173.6Y-93.75
X174.Y-85.7
X174.25Y-93.1
X174.3Y-76.9
X174.3Y-95.9
X174.65Y-86.
X174.8Y-86.5
X174.8Y-89.5
X175.Y-89.9
X175.2Y-86.6
X175.2Y-89.5
X175.3Y-76.9
X175.3Y-95.9
X175.5Y-80.3
X175.6Y-82.9
X175.6Y-84.45
X175.65Y-81.8
X175.65Y-87.
X175.7Y-88.9
X176.Y-92.4
X176.15Y-87.05
X176.15Y-88.7
X176.3Y-76.9
X176.3Y-92.9
X176.3Y-95.9
X176.8Y-92.9
X177.3Y-76.9
X177.3Y-77.7
X177.3Y-79.3
X177.3Y-82.9
X177.3Y-92.9
X177.3Y-95.9
X177.5Y-92.4
X177.55Y-85.9
X177.6Y-83.9
X177.6Y-84.9
X177.8Y-78.4
X177.9Y-86.9
X177.9Y-88.9
X178.3Y-76.9
X178.3Y-77.9
X178.3Y-78.9
X178.3Y-79.9
X178.3Y-95.9
X178.55Y-86.9
X178.55Y-88.9
X179.3Y-76.9
X179.3Y-86.9
X179.3Y-88.9
X179.3Y-89.9
X179.3Y-90.9
X179.3Y-91.9
X179.3Y-92.9
X179.3Y-93.9
X179.3Y-94.9
X179.3Y-95.9
X180.3Y-76.9
X180.3Y-77.9
X180.3Y-78.9
X180.3Y-79.9
X180.3Y-80.9
X180.3Y-81.9
X180.3Y-82.9
X180.3Y-83.9
X180.3Y-84.9
X180.3Y-85.9
X180.3Y-86.9
X180.3Y-88.9
X180.3Y-95.9
X181.3Y-76.9
X181.3Y-86.9
X181.3Y-95.9
X181.4Y-89.2
X181.4Y-89.55
X181.85Y-89.2
X181.85Y-89.55
X182.3Y-76.9
X182.3Y-82.9
X182.3Y-83.9
X182.3Y-84.9
X182.3Y-85.9
X182.3Y-86.9
X182.3Y-88.9
X182.3Y-89.9
X182.3Y-90.9
X182.3Y-91.9
X182.3Y-92.9
X182.3Y-93.9
X182.3Y-94.9
X182.3Y-95.9
X183.3Y-76.9
X183.3Y-82.9
X183.3Y-83.9
X183.3Y-84.9
X183.3Y-85.9
X183.3Y-86.9
X183.3Y-88.9
X183.3Y-89.9
X183.3Y-90.9
X183.3Y-91.9
X183.3Y-92.9
X183.3Y-93.9
X183.3Y-94.9
X183.3Y-95.9
X184.3Y-76.9
X184.3Y-82.9
X184.3Y-83.9
X184.3Y-84.9
X184.3Y-85.9
X184.3Y-86.9
X184.3Y-88.9
X184.3Y-89.9
X184.3Y-90.9
X184.3Y-91.9
X184.3Y-92.9
X184.3Y-93.9
X184.3Y-94.9
X184.3Y-95.9
X185.3Y-76.9
X185.3Y-82.9
X185.3Y-83.9
X185.3Y-84.9
X185.3Y-85.9
X185.3Y-86.9
X185.3Y-88.9
X185.3Y-89.9
X185.3Y-90.9
X185.3Y-91.9
X185.3Y-92.9
X185.3Y-93.9
X185.3Y-94.9
X185.3Y-95.9
X186.3Y-76.9
X186.3Y-82.9
X186.3Y-83.9
X186.3Y-84.9
X186.3Y-85.9
X186.3Y-86.9
X186.3Y-88.9
X186.3Y-89.9
X186.3Y-90.9
X186.3Y-91.9
X186.3Y-92.9
X186.3Y-93.9
X186.3Y-94.9
X186.3Y-95.9
X187.3Y-76.9
X187.3Y-77.9
X187.3Y-78.9
X187.3Y-79.9
X187.3Y-80.9
X187.3Y-81.9
X187.3Y-82.9
X187.3Y-83.9
X187.3Y-84.9
X187.3Y-85.9
X187.3Y-86.9
X187.3Y-88.9
X187.3Y-89.9
X187.3Y-90.9
X187.3Y-91.9
X187.3Y-92.9
X187.3Y-93.9
X187.3Y-94.9
X187.3Y-95.9
T3
X171.8Y-82.2
X174.Y-90.9
X174.7Y-92.4
X174.75Y-82.65
X179.8Y-82.4
X179.8Y-94.4
X180.8Y-81.4
X180.8Y-90.4
T4
X170.85Y-78.5
X172.1Y-78.5
X173.35Y-78.5
X174.6Y-78.5
X175.85Y-78.5
X177.1Y-78.5
T5
X164.8Y-79.8
X183.8Y-79.8
T0
M30
