G04 #@! TF.FileFunction,Soldermask,Top*
%FSLAX46Y46*%
G04 Gerber Fmt 4.6, Leading zero omitted, Abs format (unit mm)*
G04 Created by KiCad (PCBNEW 4.0.7-e2-6376~58~ubuntu16.04.1) date Wed May  9 12:33:34 2018*
%MOMM*%
%LPD*%
G01*
G04 APERTURE LIST*
%ADD10C,0.100000*%
%ADD11C,0.900000*%
%ADD12C,5.400000*%
%ADD13R,5.480000X1.900000*%
%ADD14R,5.480000X0.820000*%
%ADD15R,0.900000X1.000000*%
%ADD16R,1.000000X0.900000*%
%ADD17R,1.400000X2.000000*%
%ADD18R,0.900000X1.300000*%
%ADD19R,1.300000X0.900000*%
%ADD20R,1.250000X1.250000*%
%ADD21C,1.250000*%
%ADD22R,0.800000X0.350000*%
%ADD23R,0.350000X0.800000*%
%ADD24R,2.300000X2.300000*%
G04 APERTURE END LIST*
D10*
D11*
X168300000Y-94900000D03*
X170300000Y-85900000D03*
D12*
X183800000Y-79800000D03*
D13*
X185400000Y-92150000D03*
X185400000Y-83650000D03*
D14*
X185400000Y-87900000D03*
D13*
X163200000Y-83650000D03*
X163200000Y-92150000D03*
D14*
X163200000Y-87900000D03*
D15*
X173600000Y-93100000D03*
X173600000Y-92000000D03*
D16*
X168850000Y-87900000D03*
X167750000Y-87900000D03*
D15*
X169000000Y-92650000D03*
X169000000Y-91550000D03*
D16*
X172100000Y-85150000D03*
X171000000Y-85150000D03*
D15*
X172600000Y-92050000D03*
X172600000Y-90950000D03*
D17*
X176800000Y-84400000D03*
X173800000Y-84400000D03*
D16*
X175100000Y-90900000D03*
X174000000Y-90900000D03*
X178350000Y-87900000D03*
X177250000Y-87900000D03*
D15*
X181400000Y-89150000D03*
X181400000Y-88050000D03*
D18*
X171550000Y-92900000D03*
X170050000Y-92900000D03*
X169550000Y-90400000D03*
X171050000Y-90400000D03*
X173350000Y-81000000D03*
X174850000Y-81000000D03*
X170350000Y-81000000D03*
X171850000Y-81000000D03*
D19*
X176800000Y-92450000D03*
X176800000Y-90950000D03*
D12*
X164800000Y-79800000D03*
D20*
X177100000Y-78500000D03*
D21*
X175850000Y-78500000D03*
X174600000Y-78500000D03*
X173350000Y-78500000D03*
X172100000Y-78500000D03*
X170850000Y-78500000D03*
D22*
X171450000Y-86884000D03*
X171450000Y-87392000D03*
X171450000Y-87900000D03*
X171450000Y-88408000D03*
X171450000Y-88916000D03*
D23*
X172284000Y-89750000D03*
X172792000Y-89750000D03*
X173300000Y-89750000D03*
X173808000Y-89750000D03*
X174308000Y-89750000D03*
D22*
X175150000Y-88916000D03*
X175150000Y-88408000D03*
X175150000Y-87900000D03*
X175150000Y-87392000D03*
X175150000Y-86884000D03*
D23*
X174316000Y-86050000D03*
X173808000Y-86050000D03*
X173300000Y-86050000D03*
X172792000Y-86050000D03*
X172284000Y-86050000D03*
D24*
X173300000Y-87900000D03*
M02*
