G04 #@! TF.FileFunction,Legend,Top*
%FSLAX46Y46*%
G04 Gerber Fmt 4.6, Leading zero omitted, Abs format (unit mm)*
G04 Created by KiCad (PCBNEW 4.0.7-e2-6376~58~ubuntu16.04.1) date Wed May  9 12:33:34 2018*
%MOMM*%
%LPD*%
G01*
G04 APERTURE LIST*
%ADD10C,0.100000*%
%ADD11C,0.300000*%
%ADD12C,0.250000*%
%ADD13C,0.120000*%
%ADD14C,0.150000*%
G04 APERTURE END LIST*
D10*
D11*
X179750000Y-83178571D02*
X180035714Y-83178571D01*
X180178572Y-83250000D01*
X180321429Y-83392857D01*
X180392857Y-83678571D01*
X180392857Y-84178571D01*
X180321429Y-84464286D01*
X180178572Y-84607143D01*
X180035714Y-84678571D01*
X179750000Y-84678571D01*
X179607143Y-84607143D01*
X179464286Y-84464286D01*
X179392857Y-84178571D01*
X179392857Y-83678571D01*
X179464286Y-83392857D01*
X179607143Y-83250000D01*
X179750000Y-83178571D01*
X181678572Y-83678571D02*
X181678572Y-84678571D01*
X181035715Y-83678571D02*
X181035715Y-84464286D01*
X181107143Y-84607143D01*
X181250001Y-84678571D01*
X181464286Y-84678571D01*
X181607143Y-84607143D01*
X181678572Y-84535714D01*
X182178572Y-83678571D02*
X182750001Y-83678571D01*
X182392858Y-83178571D02*
X182392858Y-84464286D01*
X182464286Y-84607143D01*
X182607144Y-84678571D01*
X182750001Y-84678571D01*
X166021429Y-84678571D02*
X166021429Y-83178571D01*
X166735715Y-83678571D02*
X166735715Y-84678571D01*
X166735715Y-83821429D02*
X166807143Y-83750000D01*
X166950001Y-83678571D01*
X167164286Y-83678571D01*
X167307143Y-83750000D01*
X167378572Y-83892857D01*
X167378572Y-84678571D01*
D12*
X181907143Y-95404762D02*
X182050000Y-95452381D01*
X182288096Y-95452381D01*
X182383334Y-95404762D01*
X182430953Y-95357143D01*
X182478572Y-95261905D01*
X182478572Y-95166667D01*
X182430953Y-95071429D01*
X182383334Y-95023810D01*
X182288096Y-94976190D01*
X182097619Y-94928571D01*
X182002381Y-94880952D01*
X181954762Y-94833333D01*
X181907143Y-94738095D01*
X181907143Y-94642857D01*
X181954762Y-94547619D01*
X182002381Y-94500000D01*
X182097619Y-94452381D01*
X182335715Y-94452381D01*
X182478572Y-94500000D01*
X182907143Y-94928571D02*
X183240477Y-94928571D01*
X183383334Y-95452381D02*
X182907143Y-95452381D01*
X182907143Y-94452381D01*
X183383334Y-94452381D01*
X184288096Y-94452381D02*
X183811905Y-94452381D01*
X183764286Y-94928571D01*
X183811905Y-94880952D01*
X183907143Y-94833333D01*
X184145239Y-94833333D01*
X184240477Y-94880952D01*
X184288096Y-94928571D01*
X184335715Y-95023810D01*
X184335715Y-95261905D01*
X184288096Y-95357143D01*
X184240477Y-95404762D01*
X184145239Y-95452381D01*
X183907143Y-95452381D01*
X183811905Y-95404762D01*
X183764286Y-95357143D01*
X184954762Y-94452381D02*
X185050001Y-94452381D01*
X185145239Y-94500000D01*
X185192858Y-94547619D01*
X185240477Y-94642857D01*
X185288096Y-94833333D01*
X185288096Y-95071429D01*
X185240477Y-95261905D01*
X185192858Y-95357143D01*
X185145239Y-95404762D01*
X185050001Y-95452381D01*
X184954762Y-95452381D01*
X184859524Y-95404762D01*
X184811905Y-95357143D01*
X184764286Y-95261905D01*
X184716667Y-95071429D01*
X184716667Y-94833333D01*
X184764286Y-94642857D01*
X184811905Y-94547619D01*
X184859524Y-94500000D01*
X184954762Y-94452381D01*
X185907143Y-94452381D02*
X186002382Y-94452381D01*
X186097620Y-94500000D01*
X186145239Y-94547619D01*
X186192858Y-94642857D01*
X186240477Y-94833333D01*
X186240477Y-95071429D01*
X186192858Y-95261905D01*
X186145239Y-95357143D01*
X186097620Y-95404762D01*
X186002382Y-95452381D01*
X185907143Y-95452381D01*
X185811905Y-95404762D01*
X185764286Y-95357143D01*
X185716667Y-95261905D01*
X185669048Y-95071429D01*
X185669048Y-94833333D01*
X185716667Y-94642857D01*
X185764286Y-94547619D01*
X185811905Y-94500000D01*
X185907143Y-94452381D01*
X187097620Y-94785714D02*
X187097620Y-95452381D01*
X186859524Y-94404762D02*
X186621429Y-95119048D01*
X187240477Y-95119048D01*
X161685714Y-94377381D02*
X161685714Y-93377381D01*
X162257143Y-94377381D02*
X161828571Y-93805952D01*
X162257143Y-93377381D02*
X161685714Y-93948810D01*
X163019048Y-93853571D02*
X162685714Y-93853571D01*
X162685714Y-94377381D02*
X162685714Y-93377381D01*
X163161905Y-93377381D01*
X164019048Y-93377381D02*
X163542857Y-93377381D01*
X163495238Y-93853571D01*
X163542857Y-93805952D01*
X163638095Y-93758333D01*
X163876191Y-93758333D01*
X163971429Y-93805952D01*
X164019048Y-93853571D01*
X164066667Y-93948810D01*
X164066667Y-94186905D01*
X164019048Y-94282143D01*
X163971429Y-94329762D01*
X163876191Y-94377381D01*
X163638095Y-94377381D01*
X163542857Y-94329762D01*
X163495238Y-94282143D01*
X165066667Y-94282143D02*
X165019048Y-94329762D01*
X164876191Y-94377381D01*
X164780953Y-94377381D01*
X164638095Y-94329762D01*
X164542857Y-94234524D01*
X164495238Y-94139286D01*
X164447619Y-93948810D01*
X164447619Y-93805952D01*
X164495238Y-93615476D01*
X164542857Y-93520238D01*
X164638095Y-93425000D01*
X164780953Y-93377381D01*
X164876191Y-93377381D01*
X165019048Y-93425000D01*
X165066667Y-93472619D01*
X165685714Y-93377381D02*
X165876191Y-93377381D01*
X165971429Y-93425000D01*
X166066667Y-93520238D01*
X166114286Y-93710714D01*
X166114286Y-94044048D01*
X166066667Y-94234524D01*
X165971429Y-94329762D01*
X165876191Y-94377381D01*
X165685714Y-94377381D01*
X165590476Y-94329762D01*
X165495238Y-94234524D01*
X165447619Y-94044048D01*
X165447619Y-93710714D01*
X165495238Y-93520238D01*
X165590476Y-93425000D01*
X165685714Y-93377381D01*
X167209524Y-94472619D02*
X167114286Y-94425000D01*
X167019048Y-94329762D01*
X166876191Y-94186905D01*
X166780952Y-94139286D01*
X166685714Y-94139286D01*
X166733333Y-94377381D02*
X166638095Y-94329762D01*
X166542857Y-94234524D01*
X166495238Y-94044048D01*
X166495238Y-93710714D01*
X166542857Y-93520238D01*
X166638095Y-93425000D01*
X166733333Y-93377381D01*
X166923810Y-93377381D01*
X167019048Y-93425000D01*
X167114286Y-93520238D01*
X167161905Y-93710714D01*
X167161905Y-94044048D01*
X167114286Y-94234524D01*
X167019048Y-94329762D01*
X166923810Y-94377381D01*
X166733333Y-94377381D01*
X161757143Y-96127381D02*
X161757143Y-95127381D01*
X162328572Y-96127381D02*
X161900000Y-95555952D01*
X162328572Y-95127381D02*
X161757143Y-95698810D01*
X163090477Y-95603571D02*
X162757143Y-95603571D01*
X162757143Y-96127381D02*
X162757143Y-95127381D01*
X163233334Y-95127381D01*
X164042858Y-95460714D02*
X164042858Y-96127381D01*
X163804762Y-95079762D02*
X163566667Y-95794048D01*
X164185715Y-95794048D01*
X164566667Y-96127381D02*
X164566667Y-95127381D01*
X164900001Y-95841667D01*
X165233334Y-95127381D01*
X165233334Y-96127381D01*
X165900000Y-95127381D02*
X166090477Y-95127381D01*
X166185715Y-95175000D01*
X166280953Y-95270238D01*
X166328572Y-95460714D01*
X166328572Y-95794048D01*
X166280953Y-95984524D01*
X166185715Y-96079762D01*
X166090477Y-96127381D01*
X165900000Y-96127381D01*
X165804762Y-96079762D01*
X165709524Y-95984524D01*
X165661905Y-95794048D01*
X165661905Y-95460714D01*
X165709524Y-95270238D01*
X165804762Y-95175000D01*
X165900000Y-95127381D01*
X166614286Y-95127381D02*
X167185715Y-95127381D01*
X166900000Y-96127381D02*
X166900000Y-95127381D01*
D13*
X174300000Y-85420000D02*
X176300000Y-85420000D01*
X176300000Y-83380000D02*
X174300000Y-83380000D01*
X170300000Y-92220000D02*
X171300000Y-92220000D01*
X171300000Y-93580000D02*
X170300000Y-93580000D01*
X170800000Y-91080000D02*
X169800000Y-91080000D01*
X169800000Y-89720000D02*
X170800000Y-89720000D01*
X174600000Y-81680000D02*
X173600000Y-81680000D01*
X173600000Y-80320000D02*
X174600000Y-80320000D01*
X171600000Y-81680000D02*
X170600000Y-81680000D01*
X170600000Y-80320000D02*
X171600000Y-80320000D01*
X177480000Y-91200000D02*
X177480000Y-92200000D01*
X176120000Y-92200000D02*
X176120000Y-91200000D01*
X178750000Y-80725000D02*
X178750000Y-77225000D01*
X178750000Y-77225000D02*
X169200000Y-77225000D01*
X169200000Y-77225000D02*
X169200000Y-80725000D01*
X169200000Y-80725000D02*
X178750000Y-80725000D01*
X173975000Y-77775000D02*
X178200000Y-77775000D01*
X178200000Y-77775000D02*
X178200000Y-78500000D01*
X178200000Y-78500000D02*
X178400000Y-78500000D01*
X178400000Y-78500000D02*
X178400000Y-79300000D01*
X178400000Y-79300000D02*
X178200000Y-79300000D01*
X178200000Y-79300000D02*
X178200000Y-80175000D01*
X178200000Y-80175000D02*
X173975000Y-80175000D01*
X173975000Y-77775000D02*
X169750000Y-77775000D01*
X169750000Y-77775000D02*
X169750000Y-78500000D01*
X169750000Y-78500000D02*
X169550000Y-78500000D01*
X169550000Y-78500000D02*
X169550000Y-79300000D01*
X169550000Y-79300000D02*
X169750000Y-79300000D01*
X169750000Y-79300000D02*
X169750000Y-80175000D01*
X169750000Y-80175000D02*
X173975000Y-80175000D01*
X179000000Y-76975000D02*
X179000000Y-77975000D01*
X179000000Y-76975000D02*
X178000000Y-76975000D01*
D14*
X171050000Y-86400000D02*
X171800000Y-85150000D01*
X174800000Y-85150000D02*
X175550000Y-85150000D01*
X175550000Y-85150000D02*
X175550000Y-86400000D01*
X171800000Y-90650000D02*
X171050000Y-90650000D01*
X171050000Y-90650000D02*
X171050000Y-89400000D01*
X174800000Y-90650000D02*
X175550000Y-90650000D01*
X175550000Y-90650000D02*
X175550000Y-89400000D01*
X181202381Y-91383333D02*
X181916667Y-91383333D01*
X182059524Y-91430953D01*
X182154762Y-91526191D01*
X182202381Y-91669048D01*
X182202381Y-91764286D01*
X181297619Y-90954762D02*
X181250000Y-90907143D01*
X181202381Y-90811905D01*
X181202381Y-90573809D01*
X181250000Y-90478571D01*
X181297619Y-90430952D01*
X181392857Y-90383333D01*
X181488095Y-90383333D01*
X181630952Y-90430952D01*
X182202381Y-91002381D01*
X182202381Y-90383333D01*
X167752381Y-83883333D02*
X168466667Y-83883333D01*
X168609524Y-83930953D01*
X168704762Y-84026191D01*
X168752381Y-84169048D01*
X168752381Y-84264286D01*
X168752381Y-82883333D02*
X168752381Y-83454762D01*
X168752381Y-83169048D02*
X167752381Y-83169048D01*
X167895238Y-83264286D01*
X167990476Y-83359524D01*
X168038095Y-83454762D01*
X172957143Y-93416666D02*
X173004762Y-93464285D01*
X173052381Y-93607142D01*
X173052381Y-93702380D01*
X173004762Y-93845238D01*
X172909524Y-93940476D01*
X172814286Y-93988095D01*
X172623810Y-94035714D01*
X172480952Y-94035714D01*
X172290476Y-93988095D01*
X172195238Y-93940476D01*
X172100000Y-93845238D01*
X172052381Y-93702380D01*
X172052381Y-93607142D01*
X172100000Y-93464285D01*
X172147619Y-93416666D01*
X172052381Y-92511904D02*
X172052381Y-92988095D01*
X172528571Y-93035714D01*
X172480952Y-92988095D01*
X172433333Y-92892857D01*
X172433333Y-92654761D01*
X172480952Y-92559523D01*
X172528571Y-92511904D01*
X172623810Y-92464285D01*
X172861905Y-92464285D01*
X172957143Y-92511904D01*
X173004762Y-92559523D01*
X173052381Y-92654761D01*
X173052381Y-92892857D01*
X173004762Y-92988095D01*
X172957143Y-93035714D01*
X168233334Y-86757143D02*
X168185715Y-86804762D01*
X168042858Y-86852381D01*
X167947620Y-86852381D01*
X167804762Y-86804762D01*
X167709524Y-86709524D01*
X167661905Y-86614286D01*
X167614286Y-86423810D01*
X167614286Y-86280952D01*
X167661905Y-86090476D01*
X167709524Y-85995238D01*
X167804762Y-85900000D01*
X167947620Y-85852381D01*
X168042858Y-85852381D01*
X168185715Y-85900000D01*
X168233334Y-85947619D01*
X169185715Y-86852381D02*
X168614286Y-86852381D01*
X168900000Y-86852381D02*
X168900000Y-85852381D01*
X168804762Y-85995238D01*
X168709524Y-86090476D01*
X168614286Y-86138095D01*
X168087143Y-92266666D02*
X168134762Y-92314285D01*
X168182381Y-92457142D01*
X168182381Y-92552380D01*
X168134762Y-92695238D01*
X168039524Y-92790476D01*
X167944286Y-92838095D01*
X167753810Y-92885714D01*
X167610952Y-92885714D01*
X167420476Y-92838095D01*
X167325238Y-92790476D01*
X167230000Y-92695238D01*
X167182381Y-92552380D01*
X167182381Y-92457142D01*
X167230000Y-92314285D01*
X167277619Y-92266666D01*
X167277619Y-91885714D02*
X167230000Y-91838095D01*
X167182381Y-91742857D01*
X167182381Y-91504761D01*
X167230000Y-91409523D01*
X167277619Y-91361904D01*
X167372857Y-91314285D01*
X167468095Y-91314285D01*
X167610952Y-91361904D01*
X168182381Y-91933333D01*
X168182381Y-91314285D01*
X169633334Y-84707143D02*
X169585715Y-84754762D01*
X169442858Y-84802381D01*
X169347620Y-84802381D01*
X169204762Y-84754762D01*
X169109524Y-84659524D01*
X169061905Y-84564286D01*
X169014286Y-84373810D01*
X169014286Y-84230952D01*
X169061905Y-84040476D01*
X169109524Y-83945238D01*
X169204762Y-83850000D01*
X169347620Y-83802381D01*
X169442858Y-83802381D01*
X169585715Y-83850000D01*
X169633334Y-83897619D01*
X169966667Y-83802381D02*
X170585715Y-83802381D01*
X170252381Y-84183333D01*
X170395239Y-84183333D01*
X170490477Y-84230952D01*
X170538096Y-84278571D01*
X170585715Y-84373810D01*
X170585715Y-84611905D01*
X170538096Y-84707143D01*
X170490477Y-84754762D01*
X170395239Y-84802381D01*
X170109524Y-84802381D01*
X170014286Y-84754762D01*
X169966667Y-84707143D01*
X171807143Y-91766666D02*
X171854762Y-91814285D01*
X171902381Y-91957142D01*
X171902381Y-92052380D01*
X171854762Y-92195238D01*
X171759524Y-92290476D01*
X171664286Y-92338095D01*
X171473810Y-92385714D01*
X171330952Y-92385714D01*
X171140476Y-92338095D01*
X171045238Y-92290476D01*
X170950000Y-92195238D01*
X170902381Y-92052380D01*
X170902381Y-91957142D01*
X170950000Y-91814285D01*
X170997619Y-91766666D01*
X171235714Y-90909523D02*
X171902381Y-90909523D01*
X170854762Y-91147619D02*
X171569048Y-91385714D01*
X171569048Y-90766666D01*
X176683334Y-86157143D02*
X176635715Y-86204762D01*
X176492858Y-86252381D01*
X176397620Y-86252381D01*
X176254762Y-86204762D01*
X176159524Y-86109524D01*
X176111905Y-86014286D01*
X176064286Y-85823810D01*
X176064286Y-85680952D01*
X176111905Y-85490476D01*
X176159524Y-85395238D01*
X176254762Y-85300000D01*
X176397620Y-85252381D01*
X176492858Y-85252381D01*
X176635715Y-85300000D01*
X176683334Y-85347619D01*
X177540477Y-85252381D02*
X177350000Y-85252381D01*
X177254762Y-85300000D01*
X177207143Y-85347619D01*
X177111905Y-85490476D01*
X177064286Y-85680952D01*
X177064286Y-86061905D01*
X177111905Y-86157143D01*
X177159524Y-86204762D01*
X177254762Y-86252381D01*
X177445239Y-86252381D01*
X177540477Y-86204762D01*
X177588096Y-86157143D01*
X177635715Y-86061905D01*
X177635715Y-85823810D01*
X177588096Y-85728571D01*
X177540477Y-85680952D01*
X177445239Y-85633333D01*
X177254762Y-85633333D01*
X177159524Y-85680952D01*
X177111905Y-85728571D01*
X177064286Y-85823810D01*
X174383334Y-92527143D02*
X174335715Y-92574762D01*
X174192858Y-92622381D01*
X174097620Y-92622381D01*
X173954762Y-92574762D01*
X173859524Y-92479524D01*
X173811905Y-92384286D01*
X173764286Y-92193810D01*
X173764286Y-92050952D01*
X173811905Y-91860476D01*
X173859524Y-91765238D01*
X173954762Y-91670000D01*
X174097620Y-91622381D01*
X174192858Y-91622381D01*
X174335715Y-91670000D01*
X174383334Y-91717619D01*
X174716667Y-91622381D02*
X175383334Y-91622381D01*
X174954762Y-92622381D01*
X177633334Y-89757143D02*
X177585715Y-89804762D01*
X177442858Y-89852381D01*
X177347620Y-89852381D01*
X177204762Y-89804762D01*
X177109524Y-89709524D01*
X177061905Y-89614286D01*
X177014286Y-89423810D01*
X177014286Y-89280952D01*
X177061905Y-89090476D01*
X177109524Y-88995238D01*
X177204762Y-88900000D01*
X177347620Y-88852381D01*
X177442858Y-88852381D01*
X177585715Y-88900000D01*
X177633334Y-88947619D01*
X178204762Y-89280952D02*
X178109524Y-89233333D01*
X178061905Y-89185714D01*
X178014286Y-89090476D01*
X178014286Y-89042857D01*
X178061905Y-88947619D01*
X178109524Y-88900000D01*
X178204762Y-88852381D01*
X178395239Y-88852381D01*
X178490477Y-88900000D01*
X178538096Y-88947619D01*
X178585715Y-89042857D01*
X178585715Y-89090476D01*
X178538096Y-89185714D01*
X178490477Y-89233333D01*
X178395239Y-89280952D01*
X178204762Y-89280952D01*
X178109524Y-89328571D01*
X178061905Y-89376190D01*
X178014286Y-89471429D01*
X178014286Y-89661905D01*
X178061905Y-89757143D01*
X178109524Y-89804762D01*
X178204762Y-89852381D01*
X178395239Y-89852381D01*
X178490477Y-89804762D01*
X178538096Y-89757143D01*
X178585715Y-89661905D01*
X178585715Y-89471429D01*
X178538096Y-89376190D01*
X178490477Y-89328571D01*
X178395239Y-89280952D01*
X180507143Y-89916666D02*
X180554762Y-89964285D01*
X180602381Y-90107142D01*
X180602381Y-90202380D01*
X180554762Y-90345238D01*
X180459524Y-90440476D01*
X180364286Y-90488095D01*
X180173810Y-90535714D01*
X180030952Y-90535714D01*
X179840476Y-90488095D01*
X179745238Y-90440476D01*
X179650000Y-90345238D01*
X179602381Y-90202380D01*
X179602381Y-90107142D01*
X179650000Y-89964285D01*
X179697619Y-89916666D01*
X180602381Y-89440476D02*
X180602381Y-89250000D01*
X180554762Y-89154761D01*
X180507143Y-89107142D01*
X180364286Y-89011904D01*
X180173810Y-88964285D01*
X179792857Y-88964285D01*
X179697619Y-89011904D01*
X179650000Y-89059523D01*
X179602381Y-89154761D01*
X179602381Y-89345238D01*
X179650000Y-89440476D01*
X179697619Y-89488095D01*
X179792857Y-89535714D01*
X180030952Y-89535714D01*
X180126190Y-89488095D01*
X180173810Y-89440476D01*
X180221429Y-89345238D01*
X180221429Y-89154761D01*
X180173810Y-89059523D01*
X180126190Y-89011904D01*
X180030952Y-88964285D01*
X170633334Y-94802381D02*
X170157143Y-94802381D01*
X170157143Y-93802381D01*
X171490477Y-94802381D02*
X170919048Y-94802381D01*
X171204762Y-94802381D02*
X171204762Y-93802381D01*
X171109524Y-93945238D01*
X171014286Y-94040476D01*
X170919048Y-94088095D01*
X169033334Y-89752381D02*
X168700000Y-89276190D01*
X168461905Y-89752381D02*
X168461905Y-88752381D01*
X168842858Y-88752381D01*
X168938096Y-88800000D01*
X168985715Y-88847619D01*
X169033334Y-88942857D01*
X169033334Y-89085714D01*
X168985715Y-89180952D01*
X168938096Y-89228571D01*
X168842858Y-89276190D01*
X168461905Y-89276190D01*
X169985715Y-89752381D02*
X169414286Y-89752381D01*
X169700000Y-89752381D02*
X169700000Y-88752381D01*
X169604762Y-88895238D01*
X169509524Y-88990476D01*
X169414286Y-89038095D01*
X173933334Y-80002381D02*
X173600000Y-79526190D01*
X173361905Y-80002381D02*
X173361905Y-79002381D01*
X173742858Y-79002381D01*
X173838096Y-79050000D01*
X173885715Y-79097619D01*
X173933334Y-79192857D01*
X173933334Y-79335714D01*
X173885715Y-79430952D01*
X173838096Y-79478571D01*
X173742858Y-79526190D01*
X173361905Y-79526190D01*
X174266667Y-79002381D02*
X174885715Y-79002381D01*
X174552381Y-79383333D01*
X174695239Y-79383333D01*
X174790477Y-79430952D01*
X174838096Y-79478571D01*
X174885715Y-79573810D01*
X174885715Y-79811905D01*
X174838096Y-79907143D01*
X174790477Y-79954762D01*
X174695239Y-80002381D01*
X174409524Y-80002381D01*
X174314286Y-79954762D01*
X174266667Y-79907143D01*
X170933334Y-80002381D02*
X170600000Y-79526190D01*
X170361905Y-80002381D02*
X170361905Y-79002381D01*
X170742858Y-79002381D01*
X170838096Y-79050000D01*
X170885715Y-79097619D01*
X170933334Y-79192857D01*
X170933334Y-79335714D01*
X170885715Y-79430952D01*
X170838096Y-79478571D01*
X170742858Y-79526190D01*
X170361905Y-79526190D01*
X171790477Y-79335714D02*
X171790477Y-80002381D01*
X171552381Y-78954762D02*
X171314286Y-79669048D01*
X171933334Y-79669048D01*
X178752381Y-91766666D02*
X178276190Y-92100000D01*
X178752381Y-92338095D02*
X177752381Y-92338095D01*
X177752381Y-91957142D01*
X177800000Y-91861904D01*
X177847619Y-91814285D01*
X177942857Y-91766666D01*
X178085714Y-91766666D01*
X178180952Y-91814285D01*
X178228571Y-91861904D01*
X178276190Y-91957142D01*
X178276190Y-92338095D01*
X177847619Y-91385714D02*
X177800000Y-91338095D01*
X177752381Y-91242857D01*
X177752381Y-91004761D01*
X177800000Y-90909523D01*
X177847619Y-90861904D01*
X177942857Y-90814285D01*
X178038095Y-90814285D01*
X178180952Y-90861904D01*
X178752381Y-91433333D01*
X178752381Y-90814285D01*
X173766667Y-76652381D02*
X173766667Y-77366667D01*
X173719047Y-77509524D01*
X173623809Y-77604762D01*
X173480952Y-77652381D01*
X173385714Y-77652381D01*
X174147619Y-76652381D02*
X174766667Y-76652381D01*
X174433333Y-77033333D01*
X174576191Y-77033333D01*
X174671429Y-77080952D01*
X174719048Y-77128571D01*
X174766667Y-77223810D01*
X174766667Y-77461905D01*
X174719048Y-77557143D01*
X174671429Y-77604762D01*
X174576191Y-77652381D01*
X174290476Y-77652381D01*
X174195238Y-77604762D01*
X174147619Y-77557143D01*
X172385714Y-83492857D02*
X172385714Y-84464286D01*
X172442857Y-84578571D01*
X172500000Y-84635714D01*
X172614286Y-84692857D01*
X172842857Y-84692857D01*
X172957143Y-84635714D01*
X173014286Y-84578571D01*
X173071429Y-84464286D01*
X173071429Y-83492857D01*
X174271429Y-84692857D02*
X173585714Y-84692857D01*
X173928572Y-84692857D02*
X173928572Y-83492857D01*
X173814286Y-83664286D01*
X173700000Y-83778571D01*
X173585714Y-83835714D01*
M02*
