G04 #@! TF.FileFunction,Legend,Bot*
%FSLAX46Y46*%
G04 Gerber Fmt 4.6, Leading zero omitted, Abs format (unit mm)*
G04 Created by KiCad (PCBNEW 4.0.7-e2-6376~58~ubuntu16.04.1) date Wed May  9 12:33:34 2018*
%MOMM*%
%LPD*%
G01*
G04 APERTURE LIST*
%ADD10C,0.100000*%
%ADD11C,0.300000*%
%ADD12C,0.010000*%
G04 APERTURE END LIST*
D10*
D11*
X175019048Y-83421429D02*
X175019048Y-84754762D01*
X175495238Y-82659524D02*
X175971429Y-84088095D01*
X174733333Y-84088095D01*
X176500000Y-84400000D02*
X176500000Y-87150000D01*
X176500000Y-84348531D02*
G75*
G03X177050000Y-84550000I0J-851469D01*
G01*
D12*
G36*
X161972094Y-91458842D02*
X162004619Y-91446264D01*
X162054193Y-91421288D01*
X162125374Y-91382124D01*
X162130916Y-91379012D01*
X162196474Y-91341524D01*
X162251798Y-91308681D01*
X162291455Y-91283795D01*
X162310012Y-91270180D01*
X162310531Y-91269513D01*
X162306048Y-91250610D01*
X162285486Y-91208395D01*
X162250183Y-91145168D01*
X162201480Y-91063228D01*
X162140718Y-90964878D01*
X162069236Y-90852415D01*
X162051445Y-90824835D01*
X162005093Y-90748301D01*
X161971342Y-90682444D01*
X161953153Y-90633218D01*
X161951286Y-90623493D01*
X161952115Y-90580688D01*
X161961394Y-90512791D01*
X161977968Y-90424157D01*
X162000680Y-90319141D01*
X162028373Y-90202098D01*
X162059890Y-90077384D01*
X162094075Y-89949355D01*
X162129771Y-89822366D01*
X162165821Y-89700772D01*
X162201068Y-89588928D01*
X162234356Y-89491190D01*
X162264528Y-89411913D01*
X162285561Y-89364878D01*
X162310337Y-89314775D01*
X162333730Y-89266832D01*
X162334997Y-89264207D01*
X162373699Y-89215780D01*
X162430184Y-89183172D01*
X162495939Y-89167546D01*
X162562451Y-89170063D01*
X162621205Y-89191886D01*
X162654258Y-89220618D01*
X162701859Y-89299417D01*
X162736739Y-89397622D01*
X162755877Y-89505221D01*
X162758588Y-89566220D01*
X162747670Y-89680065D01*
X162715624Y-89774340D01*
X162660726Y-89853621D01*
X162643607Y-89871267D01*
X162592661Y-89920765D01*
X162589163Y-90270638D01*
X162585664Y-90620511D01*
X162674818Y-90755469D01*
X162716654Y-90816555D01*
X162756945Y-90871507D01*
X162789943Y-90912664D01*
X162804126Y-90927808D01*
X162844281Y-90965190D01*
X162898665Y-90935902D01*
X162933039Y-90914916D01*
X162951846Y-90898622D01*
X162953049Y-90895693D01*
X162965903Y-90883272D01*
X162987896Y-90874023D01*
X163009150Y-90865687D01*
X163041694Y-90849851D01*
X163088322Y-90824967D01*
X163151829Y-90789491D01*
X163235008Y-90741877D01*
X163340653Y-90680578D01*
X163398062Y-90647068D01*
X163465594Y-90606929D01*
X163509885Y-90578341D01*
X163534855Y-90557961D01*
X163544423Y-90542447D01*
X163542508Y-90528454D01*
X163540911Y-90525204D01*
X163525376Y-90504734D01*
X163492136Y-90466335D01*
X163445062Y-90414304D01*
X163388028Y-90352934D01*
X163338700Y-90300910D01*
X163225030Y-90177433D01*
X163136105Y-90070409D01*
X163071134Y-89978760D01*
X163029321Y-89901412D01*
X163015217Y-89862134D01*
X163009392Y-89827751D01*
X163003375Y-89769101D01*
X162997696Y-89692883D01*
X162992884Y-89605798D01*
X162990619Y-89550732D01*
X162987459Y-89455536D01*
X162986069Y-89385938D01*
X162986858Y-89336591D01*
X162990235Y-89302146D01*
X162996608Y-89277257D01*
X163006387Y-89256575D01*
X163014067Y-89243947D01*
X163058421Y-89195274D01*
X163115574Y-89161355D01*
X163175708Y-89146562D01*
X163220773Y-89151914D01*
X163261576Y-89175070D01*
X163312724Y-89216538D01*
X163367042Y-89269088D01*
X163417357Y-89325484D01*
X163456494Y-89378495D01*
X163470905Y-89404111D01*
X163492491Y-89439186D01*
X163531753Y-89492611D01*
X163585102Y-89560211D01*
X163648952Y-89637810D01*
X163719715Y-89721232D01*
X163793804Y-89806302D01*
X163867632Y-89888845D01*
X163937611Y-89964684D01*
X164000155Y-90029644D01*
X164049260Y-90077331D01*
X164103779Y-90124968D01*
X164149642Y-90160092D01*
X164181811Y-90179051D01*
X164192489Y-90181136D01*
X164208853Y-90172726D01*
X164249671Y-90150154D01*
X164312586Y-90114776D01*
X164395244Y-90067946D01*
X164495289Y-90011019D01*
X164610366Y-89945351D01*
X164738119Y-89872297D01*
X164876194Y-89793212D01*
X165022234Y-89709452D01*
X165173884Y-89622371D01*
X165328790Y-89533324D01*
X165484595Y-89443668D01*
X165638944Y-89354757D01*
X165789482Y-89267946D01*
X165933854Y-89184591D01*
X166069704Y-89106046D01*
X166194677Y-89033667D01*
X166306417Y-88968810D01*
X166402570Y-88912829D01*
X166480779Y-88867080D01*
X166538689Y-88832917D01*
X166573946Y-88811696D01*
X166584165Y-88805037D01*
X166570402Y-88803720D01*
X166527104Y-88802441D01*
X166455714Y-88801204D01*
X166357673Y-88800017D01*
X166234422Y-88798885D01*
X166087403Y-88797814D01*
X165918057Y-88796811D01*
X165727826Y-88795881D01*
X165518151Y-88795032D01*
X165290473Y-88794268D01*
X165046235Y-88793597D01*
X164786877Y-88793024D01*
X164513841Y-88792556D01*
X164228568Y-88792198D01*
X163932500Y-88791958D01*
X163627079Y-88791841D01*
X163498924Y-88791829D01*
X160398970Y-88791829D01*
X160620053Y-89175153D01*
X160666856Y-89256320D01*
X160727102Y-89360834D01*
X160798778Y-89485199D01*
X160879869Y-89625918D01*
X160968362Y-89779497D01*
X161062240Y-89942438D01*
X161159491Y-90111246D01*
X161258100Y-90282425D01*
X161356053Y-90452479D01*
X161380825Y-90495488D01*
X161471152Y-90652143D01*
X161557289Y-90801197D01*
X161637942Y-90940432D01*
X161711816Y-91067629D01*
X161777617Y-91180568D01*
X161834050Y-91277032D01*
X161879821Y-91354800D01*
X161913635Y-91411654D01*
X161934198Y-91445375D01*
X161939953Y-91453960D01*
X161952058Y-91460811D01*
X161972094Y-91458842D01*
X161972094Y-91458842D01*
G37*
X161972094Y-91458842D02*
X162004619Y-91446264D01*
X162054193Y-91421288D01*
X162125374Y-91382124D01*
X162130916Y-91379012D01*
X162196474Y-91341524D01*
X162251798Y-91308681D01*
X162291455Y-91283795D01*
X162310012Y-91270180D01*
X162310531Y-91269513D01*
X162306048Y-91250610D01*
X162285486Y-91208395D01*
X162250183Y-91145168D01*
X162201480Y-91063228D01*
X162140718Y-90964878D01*
X162069236Y-90852415D01*
X162051445Y-90824835D01*
X162005093Y-90748301D01*
X161971342Y-90682444D01*
X161953153Y-90633218D01*
X161951286Y-90623493D01*
X161952115Y-90580688D01*
X161961394Y-90512791D01*
X161977968Y-90424157D01*
X162000680Y-90319141D01*
X162028373Y-90202098D01*
X162059890Y-90077384D01*
X162094075Y-89949355D01*
X162129771Y-89822366D01*
X162165821Y-89700772D01*
X162201068Y-89588928D01*
X162234356Y-89491190D01*
X162264528Y-89411913D01*
X162285561Y-89364878D01*
X162310337Y-89314775D01*
X162333730Y-89266832D01*
X162334997Y-89264207D01*
X162373699Y-89215780D01*
X162430184Y-89183172D01*
X162495939Y-89167546D01*
X162562451Y-89170063D01*
X162621205Y-89191886D01*
X162654258Y-89220618D01*
X162701859Y-89299417D01*
X162736739Y-89397622D01*
X162755877Y-89505221D01*
X162758588Y-89566220D01*
X162747670Y-89680065D01*
X162715624Y-89774340D01*
X162660726Y-89853621D01*
X162643607Y-89871267D01*
X162592661Y-89920765D01*
X162589163Y-90270638D01*
X162585664Y-90620511D01*
X162674818Y-90755469D01*
X162716654Y-90816555D01*
X162756945Y-90871507D01*
X162789943Y-90912664D01*
X162804126Y-90927808D01*
X162844281Y-90965190D01*
X162898665Y-90935902D01*
X162933039Y-90914916D01*
X162951846Y-90898622D01*
X162953049Y-90895693D01*
X162965903Y-90883272D01*
X162987896Y-90874023D01*
X163009150Y-90865687D01*
X163041694Y-90849851D01*
X163088322Y-90824967D01*
X163151829Y-90789491D01*
X163235008Y-90741877D01*
X163340653Y-90680578D01*
X163398062Y-90647068D01*
X163465594Y-90606929D01*
X163509885Y-90578341D01*
X163534855Y-90557961D01*
X163544423Y-90542447D01*
X163542508Y-90528454D01*
X163540911Y-90525204D01*
X163525376Y-90504734D01*
X163492136Y-90466335D01*
X163445062Y-90414304D01*
X163388028Y-90352934D01*
X163338700Y-90300910D01*
X163225030Y-90177433D01*
X163136105Y-90070409D01*
X163071134Y-89978760D01*
X163029321Y-89901412D01*
X163015217Y-89862134D01*
X163009392Y-89827751D01*
X163003375Y-89769101D01*
X162997696Y-89692883D01*
X162992884Y-89605798D01*
X162990619Y-89550732D01*
X162987459Y-89455536D01*
X162986069Y-89385938D01*
X162986858Y-89336591D01*
X162990235Y-89302146D01*
X162996608Y-89277257D01*
X163006387Y-89256575D01*
X163014067Y-89243947D01*
X163058421Y-89195274D01*
X163115574Y-89161355D01*
X163175708Y-89146562D01*
X163220773Y-89151914D01*
X163261576Y-89175070D01*
X163312724Y-89216538D01*
X163367042Y-89269088D01*
X163417357Y-89325484D01*
X163456494Y-89378495D01*
X163470905Y-89404111D01*
X163492491Y-89439186D01*
X163531753Y-89492611D01*
X163585102Y-89560211D01*
X163648952Y-89637810D01*
X163719715Y-89721232D01*
X163793804Y-89806302D01*
X163867632Y-89888845D01*
X163937611Y-89964684D01*
X164000155Y-90029644D01*
X164049260Y-90077331D01*
X164103779Y-90124968D01*
X164149642Y-90160092D01*
X164181811Y-90179051D01*
X164192489Y-90181136D01*
X164208853Y-90172726D01*
X164249671Y-90150154D01*
X164312586Y-90114776D01*
X164395244Y-90067946D01*
X164495289Y-90011019D01*
X164610366Y-89945351D01*
X164738119Y-89872297D01*
X164876194Y-89793212D01*
X165022234Y-89709452D01*
X165173884Y-89622371D01*
X165328790Y-89533324D01*
X165484595Y-89443668D01*
X165638944Y-89354757D01*
X165789482Y-89267946D01*
X165933854Y-89184591D01*
X166069704Y-89106046D01*
X166194677Y-89033667D01*
X166306417Y-88968810D01*
X166402570Y-88912829D01*
X166480779Y-88867080D01*
X166538689Y-88832917D01*
X166573946Y-88811696D01*
X166584165Y-88805037D01*
X166570402Y-88803720D01*
X166527104Y-88802441D01*
X166455714Y-88801204D01*
X166357673Y-88800017D01*
X166234422Y-88798885D01*
X166087403Y-88797814D01*
X165918057Y-88796811D01*
X165727826Y-88795881D01*
X165518151Y-88795032D01*
X165290473Y-88794268D01*
X165046235Y-88793597D01*
X164786877Y-88793024D01*
X164513841Y-88792556D01*
X164228568Y-88792198D01*
X163932500Y-88791958D01*
X163627079Y-88791841D01*
X163498924Y-88791829D01*
X160398970Y-88791829D01*
X160620053Y-89175153D01*
X160666856Y-89256320D01*
X160727102Y-89360834D01*
X160798778Y-89485199D01*
X160879869Y-89625918D01*
X160968362Y-89779497D01*
X161062240Y-89942438D01*
X161159491Y-90111246D01*
X161258100Y-90282425D01*
X161356053Y-90452479D01*
X161380825Y-90495488D01*
X161471152Y-90652143D01*
X161557289Y-90801197D01*
X161637942Y-90940432D01*
X161711816Y-91067629D01*
X161777617Y-91180568D01*
X161834050Y-91277032D01*
X161879821Y-91354800D01*
X161913635Y-91411654D01*
X161934198Y-91445375D01*
X161939953Y-91453960D01*
X161952058Y-91460811D01*
X161972094Y-91458842D01*
G36*
X165637528Y-91515381D02*
X165648908Y-91496307D01*
X165674488Y-91452579D01*
X165713002Y-91386381D01*
X165763186Y-91299898D01*
X165823775Y-91195315D01*
X165893503Y-91074817D01*
X165971107Y-90940588D01*
X166055320Y-90794813D01*
X166144879Y-90639677D01*
X166236998Y-90480000D01*
X166331076Y-90316883D01*
X166421402Y-90160291D01*
X166506665Y-90012494D01*
X166585557Y-89875760D01*
X166656769Y-89752358D01*
X166718991Y-89644556D01*
X166770913Y-89554623D01*
X166811228Y-89484827D01*
X166838624Y-89437436D01*
X166851507Y-89415214D01*
X166872507Y-89377670D01*
X166883925Y-89354169D01*
X166884551Y-89350080D01*
X166870636Y-89357758D01*
X166831941Y-89379797D01*
X166770487Y-89415029D01*
X166688298Y-89462289D01*
X166587396Y-89520411D01*
X166469805Y-89588229D01*
X166337546Y-89664576D01*
X166192642Y-89748286D01*
X166037117Y-89838194D01*
X165872992Y-89933133D01*
X165810549Y-89969268D01*
X165643487Y-90065917D01*
X165484074Y-90158062D01*
X165334355Y-90244525D01*
X165196376Y-90324129D01*
X165072185Y-90395695D01*
X164963827Y-90458045D01*
X164873348Y-90510002D01*
X164802796Y-90550387D01*
X164754215Y-90578022D01*
X164729654Y-90591728D01*
X164727085Y-90593026D01*
X164734569Y-90604780D01*
X164760614Y-90636205D01*
X164802559Y-90684406D01*
X164857746Y-90746490D01*
X164923517Y-90819561D01*
X164997212Y-90900724D01*
X165076173Y-90987084D01*
X165157740Y-91075747D01*
X165239254Y-91163818D01*
X165318057Y-91248401D01*
X165391490Y-91326603D01*
X165456893Y-91395528D01*
X165511608Y-91452281D01*
X165552977Y-91493968D01*
X165567164Y-91507637D01*
X165614180Y-91551799D01*
X165637528Y-91515381D01*
X165637528Y-91515381D01*
G37*
X165637528Y-91515381D02*
X165648908Y-91496307D01*
X165674488Y-91452579D01*
X165713002Y-91386381D01*
X165763186Y-91299898D01*
X165823775Y-91195315D01*
X165893503Y-91074817D01*
X165971107Y-90940588D01*
X166055320Y-90794813D01*
X166144879Y-90639677D01*
X166236998Y-90480000D01*
X166331076Y-90316883D01*
X166421402Y-90160291D01*
X166506665Y-90012494D01*
X166585557Y-89875760D01*
X166656769Y-89752358D01*
X166718991Y-89644556D01*
X166770913Y-89554623D01*
X166811228Y-89484827D01*
X166838624Y-89437436D01*
X166851507Y-89415214D01*
X166872507Y-89377670D01*
X166883925Y-89354169D01*
X166884551Y-89350080D01*
X166870636Y-89357758D01*
X166831941Y-89379797D01*
X166770487Y-89415029D01*
X166688298Y-89462289D01*
X166587396Y-89520411D01*
X166469805Y-89588229D01*
X166337546Y-89664576D01*
X166192642Y-89748286D01*
X166037117Y-89838194D01*
X165872992Y-89933133D01*
X165810549Y-89969268D01*
X165643487Y-90065917D01*
X165484074Y-90158062D01*
X165334355Y-90244525D01*
X165196376Y-90324129D01*
X165072185Y-90395695D01*
X164963827Y-90458045D01*
X164873348Y-90510002D01*
X164802796Y-90550387D01*
X164754215Y-90578022D01*
X164729654Y-90591728D01*
X164727085Y-90593026D01*
X164734569Y-90604780D01*
X164760614Y-90636205D01*
X164802559Y-90684406D01*
X164857746Y-90746490D01*
X164923517Y-90819561D01*
X164997212Y-90900724D01*
X165076173Y-90987084D01*
X165157740Y-91075747D01*
X165239254Y-91163818D01*
X165318057Y-91248401D01*
X165391490Y-91326603D01*
X165456893Y-91395528D01*
X165511608Y-91452281D01*
X165552977Y-91493968D01*
X165567164Y-91507637D01*
X165614180Y-91551799D01*
X165637528Y-91515381D01*
G36*
X163814043Y-94664165D02*
X163837065Y-94626755D01*
X163872534Y-94567486D01*
X163918996Y-94488882D01*
X163974996Y-94393462D01*
X164039081Y-94283750D01*
X164109796Y-94162266D01*
X164185687Y-94031532D01*
X164265299Y-93894070D01*
X164347178Y-93752402D01*
X164429870Y-93609049D01*
X164511921Y-93466533D01*
X164591876Y-93327376D01*
X164668281Y-93194099D01*
X164739682Y-93069224D01*
X164804624Y-92955273D01*
X164861653Y-92854767D01*
X164909315Y-92770228D01*
X164946155Y-92704178D01*
X164970720Y-92659138D01*
X164981554Y-92637630D01*
X164981951Y-92636286D01*
X164968501Y-92618035D01*
X164931114Y-92590118D01*
X164874235Y-92555275D01*
X164802312Y-92516246D01*
X164727015Y-92479157D01*
X164624560Y-92434183D01*
X164516817Y-92393774D01*
X164400073Y-92357031D01*
X164270618Y-92323058D01*
X164124740Y-92290956D01*
X163958726Y-92259827D01*
X163768866Y-92228773D01*
X163572469Y-92199855D01*
X163401834Y-92174200D01*
X163258545Y-92148802D01*
X163139008Y-92122398D01*
X163039630Y-92093727D01*
X162956818Y-92061527D01*
X162886978Y-92024535D01*
X162826518Y-91981488D01*
X162771845Y-91931125D01*
X162754214Y-91912417D01*
X162716000Y-91868861D01*
X162687732Y-91833318D01*
X162674618Y-91812417D01*
X162674268Y-91810703D01*
X162669680Y-91800194D01*
X162653758Y-91800076D01*
X162623266Y-91811746D01*
X162574968Y-91836604D01*
X162505627Y-91876048D01*
X162457439Y-91904413D01*
X162385583Y-91948753D01*
X162329742Y-91986721D01*
X162293667Y-92015584D01*
X162281113Y-92032612D01*
X162281121Y-92032736D01*
X162288906Y-92048963D01*
X162310892Y-92089600D01*
X162345803Y-92152433D01*
X162392363Y-92235248D01*
X162449295Y-92335828D01*
X162515323Y-92451960D01*
X162589172Y-92581429D01*
X162669564Y-92722020D01*
X162755224Y-92871518D01*
X162844876Y-93027708D01*
X162937243Y-93188376D01*
X163031049Y-93351307D01*
X163125018Y-93514287D01*
X163217874Y-93675100D01*
X163308340Y-93831532D01*
X163395141Y-93981367D01*
X163477000Y-94122392D01*
X163552641Y-94252391D01*
X163620787Y-94369151D01*
X163680163Y-94470455D01*
X163729493Y-94554089D01*
X163767500Y-94617838D01*
X163792907Y-94659489D01*
X163804440Y-94676825D01*
X163804923Y-94677195D01*
X163814043Y-94664165D01*
X163814043Y-94664165D01*
G37*
X163814043Y-94664165D02*
X163837065Y-94626755D01*
X163872534Y-94567486D01*
X163918996Y-94488882D01*
X163974996Y-94393462D01*
X164039081Y-94283750D01*
X164109796Y-94162266D01*
X164185687Y-94031532D01*
X164265299Y-93894070D01*
X164347178Y-93752402D01*
X164429870Y-93609049D01*
X164511921Y-93466533D01*
X164591876Y-93327376D01*
X164668281Y-93194099D01*
X164739682Y-93069224D01*
X164804624Y-92955273D01*
X164861653Y-92854767D01*
X164909315Y-92770228D01*
X164946155Y-92704178D01*
X164970720Y-92659138D01*
X164981554Y-92637630D01*
X164981951Y-92636286D01*
X164968501Y-92618035D01*
X164931114Y-92590118D01*
X164874235Y-92555275D01*
X164802312Y-92516246D01*
X164727015Y-92479157D01*
X164624560Y-92434183D01*
X164516817Y-92393774D01*
X164400073Y-92357031D01*
X164270618Y-92323058D01*
X164124740Y-92290956D01*
X163958726Y-92259827D01*
X163768866Y-92228773D01*
X163572469Y-92199855D01*
X163401834Y-92174200D01*
X163258545Y-92148802D01*
X163139008Y-92122398D01*
X163039630Y-92093727D01*
X162956818Y-92061527D01*
X162886978Y-92024535D01*
X162826518Y-91981488D01*
X162771845Y-91931125D01*
X162754214Y-91912417D01*
X162716000Y-91868861D01*
X162687732Y-91833318D01*
X162674618Y-91812417D01*
X162674268Y-91810703D01*
X162669680Y-91800194D01*
X162653758Y-91800076D01*
X162623266Y-91811746D01*
X162574968Y-91836604D01*
X162505627Y-91876048D01*
X162457439Y-91904413D01*
X162385583Y-91948753D01*
X162329742Y-91986721D01*
X162293667Y-92015584D01*
X162281113Y-92032612D01*
X162281121Y-92032736D01*
X162288906Y-92048963D01*
X162310892Y-92089600D01*
X162345803Y-92152433D01*
X162392363Y-92235248D01*
X162449295Y-92335828D01*
X162515323Y-92451960D01*
X162589172Y-92581429D01*
X162669564Y-92722020D01*
X162755224Y-92871518D01*
X162844876Y-93027708D01*
X162937243Y-93188376D01*
X163031049Y-93351307D01*
X163125018Y-93514287D01*
X163217874Y-93675100D01*
X163308340Y-93831532D01*
X163395141Y-93981367D01*
X163477000Y-94122392D01*
X163552641Y-94252391D01*
X163620787Y-94369151D01*
X163680163Y-94470455D01*
X163729493Y-94554089D01*
X163767500Y-94617838D01*
X163792907Y-94659489D01*
X163804440Y-94676825D01*
X163804923Y-94677195D01*
X163814043Y-94664165D01*
M02*
